<svg xmlns="http://www.w3.org/2000/svg" viewBox="0 0 64 64" fill="none">
  <rect width="64" height="64" rx="14" fill="#1d4ed8"/>
  <path d="M32 8C36.4 8 40 11.6 40 16C40 20.4 36.4 24 32 24C27.6 24 24 20.4 24 16C24 11.6 27.6 8 32 8Z" fill="white" opacity="0.9"/>
  <path d="M20 14C23.3 14 26 16.7 26 20C26 23.3 23.3 26 20 26C16.7 26 14 23.3 14 20C14 16.7 16.7 14 20 14Z" fill="white" opacity="0.6"/>
  <path d="M44 14C47.3 14 50 16.7 50 20C50 23.3 47.3 26 44 26C40.7 26 38 23.3 38 20C38 16.7 40.7 14 44 14Z" fill="white" opacity="0.6"/>
  <path d="M32 26C38.6 26 44 31.4 44 38V56H20V38C20 31.4 25.4 26 32 26Z" fill="white" opacity="0.9"/>
  <path d="M20 28C25.5 28 30 32.5 30 38V56H10V38C10 32.5 14.5 28 20 28Z" fill="white" opacity="0.55"/>
  <path d="M44 28C49.5 28 54 32.5 54 38V56H34V38C34 32.5 38.5 28 44 28Z" fill="white" opacity="0.55"/>
</svg>
